<svg width="64" height="64" viewBox="0 0 64 64" fill="none" xmlns="http://www.w3.org/2000/svg">
<mask id="mask0_101916_44" style="mask-type:alpha" maskUnits="userSpaceOnUse" x="0" y="0" width="64" height="64">
<path d="M39.4156 56.6917H29.7246V47.0015H39.4149V56.6917H39.4156ZM31.8089 54.6074H37.3306V49.0858H31.8089V54.6074Z" fill="black"/>
<path d="M21.5093 14.6768H11.8184V4.98584H21.5086V14.6768H21.5093ZM13.9027 12.5918H19.4243V7.07016H13.9027V12.5918Z" fill="black"/>
<path d="M34.0152 14.6768H24.3242V4.98584H34.0145V14.6768H34.0152ZM26.4085 12.5918H31.9302V7.07016H26.4085V12.5918Z" fill="black"/>
<path d="M21.5093 27.1827H11.8184V17.4917H21.5086V27.1827H21.5093ZM13.9027 25.0984H19.4243V19.5767H13.9027V25.0984Z" fill="black"/>
<path d="M21.5093 39.6885H11.8184V29.9976H21.5086V39.6885H21.5093ZM13.9027 37.6042H19.4243V32.0826H13.9027V37.6042Z" fill="black"/>
<path d="M39.202 31.68H29.5117V21.9897H39.202V31.68ZM31.596 29.5957H37.1177V24.0741H31.596V29.5957Z" fill="black"/>
<path d="M39.202 44.1859H29.5117V34.4956H39.202V44.1859ZM31.596 42.1016H37.1177V36.5799H31.596V42.1016Z" fill="black"/>
<path d="M57.673 61.5406V17.4917H39.6062V0.399902H6.25637V61.5406H2.08984V63.6249H11.8181H21.5083H24.324H57.673H61.8403V61.5406H57.673ZM13.9024 61.5406V44.5886H19.424V61.5406H13.9024ZM21.5091 61.5406V42.5042H11.8181V61.5406H8.34069V2.48422H37.5218V17.4917H24.324V61.5406H21.5091ZM26.4083 61.5406V19.576H55.5887V61.5406H26.4083Z" fill="black"/>
<path d="M52.6168 56.6917H42.9258V47.0015H52.6168V56.6917ZM45.0101 54.6074H50.5325V49.0858H45.0101V54.6074Z" fill="black"/>
<path d="M52.4019 31.68H42.7109V21.9897H52.4019V31.68ZM44.7953 29.5957H50.3176V24.0741H44.7953V29.5957Z" fill="black"/>
<path d="M52.4019 44.1859H42.7109V34.4956H52.4019V44.1859ZM44.7953 42.1016H50.3176V36.5799H44.7953V42.1016Z" fill="black"/>
</mask>
<g mask="url(#mask0_101916_44)">
</g>
<path d="M39.4156 56.6917H29.7246V47.0015H39.4149V56.6917H39.4156ZM31.8089 54.6074H37.3306V49.0858H31.8089V54.6074Z" fill="#4985FF"/>
<path d="M21.5093 14.6768H11.8184V4.98584H21.5086V14.6768H21.5093ZM13.9027 12.5918H19.4243V7.07016H13.9027V12.5918Z" fill="#4985FF"/>
<path d="M34.0152 14.6768H24.3242V4.98584H34.0145V14.6768H34.0152ZM26.4085 12.5918H31.9302V7.07016H26.4085V12.5918Z" fill="#4985FF"/>
<path d="M21.5093 27.1827H11.8184V17.4917H21.5086V27.1827H21.5093ZM13.9027 25.0984H19.4243V19.5767H13.9027V25.0984Z" fill="#4985FF"/>
<path d="M21.5093 39.6885H11.8184V29.9976H21.5086V39.6885H21.5093ZM13.9027 37.6042H19.4243V32.0826H13.9027V37.6042Z" fill="#4985FF"/>
<path d="M39.202 31.68H29.5117V21.9897H39.202V31.68ZM31.596 29.5957H37.1177V24.0741H31.596V29.5957Z" fill="#4985FF"/>
<path d="M39.202 44.1859H29.5117V34.4956H39.202V44.1859ZM31.596 42.1016H37.1177V36.5799H31.596V42.1016Z" fill="#4985FF"/>
<path d="M57.673 61.5406V17.4917H39.6062V0.399902H6.25637V61.5406H2.08984V63.6249H11.8181H21.5083H24.324H57.673H61.8403V61.5406H57.673ZM13.9024 61.5406V44.5886H19.424V61.5406H13.9024ZM21.5091 61.5406V42.5042H11.8181V61.5406H8.34069V2.48422H37.5218V17.4917H24.324V61.5406H21.5091ZM26.4083 61.5406V19.576H55.5887V61.5406H26.4083Z" fill="#4985FF"/>
<path d="M52.6168 56.6917H42.9258V47.0015H52.6168V56.6917ZM45.0101 54.6074H50.5325V49.0858H45.0101V54.6074Z" fill="#4985FF"/>
<path d="M52.4019 31.68H42.7109V21.9897H52.4019V31.68ZM44.7953 29.5957H50.3176V24.0741H44.7953V29.5957Z" fill="#4985FF"/>
<path d="M52.4019 44.1859H42.7109V34.4956H52.4019V44.1859ZM44.7953 42.1016H50.3176V36.5799H44.7953V42.1016Z" fill="#4985FF"/>
</svg>
