<svg width="90" height="90" viewBox="0 0 90 90" fill="none" xmlns="http://www.w3.org/2000/svg">
<path fill-rule="evenodd" clip-rule="evenodd" d="M45 89C69.3005 89 89 69.3005 89 45C89 20.6995 69.3005 1 45 1C20.6995 1 1 20.6995 1 45C1 69.3005 20.6995 89 45 89ZM45 90C69.8528 90 90 69.8528 90 45C90 20.1472 69.8528 0 45 0C20.1472 0 0 20.1472 0 45C0 69.8528 20.1472 90 45 90ZM43.9641 13.3516C26.533 13.3516 12.3516 27.533 12.3516 44.9641C12.3516 62.3953 26.533 76.5766 43.9641 76.5766C61.3953 76.5766 75.5766 62.3953 75.5766 44.9641C75.5766 27.533 61.3953 13.3516 43.9641 13.3516ZM18.488 58.3791C16.5744 54.7598 15.4061 50.6888 15.1975 46.3691H26.4508C26.5506 50.6706 27.107 54.7219 28.035 58.3791H18.488ZM45.3691 16.3021C49.7359 17.155 53.6123 21.9271 56.0415 28.7399H45.3691V16.3021ZM56.9288 31.5499C57.9369 35.1882 58.5565 39.2669 58.6682 43.5591H45.3691V31.5499H56.9288ZM31.8875 28.7399C34.316 21.9271 38.1924 17.155 42.5591 16.3021V28.7399H31.8875ZM29.2601 43.5591C29.3718 39.2669 29.9914 35.1882 30.9995 31.5499H42.5591V43.5591H29.2601ZM28.035 31.5499C27.1063 35.2064 26.5499 39.2577 26.4508 43.5591H15.1975C15.4061 39.2395 16.5744 35.1685 18.488 31.5499H28.035ZM30.9995 58.3791C29.9921 54.7408 29.3718 50.6621 29.2601 46.3691H42.5591V58.3791H30.9995ZM42.5591 73.6262C38.1924 72.7733 34.3167 68.0012 31.8875 61.1884H42.5591V61.1891V73.6262ZM56.0415 61.1891C53.6123 68.0012 49.7359 72.7733 45.3691 73.6262V61.1891H56.0415ZM58.6682 46.3691C58.5565 50.6621 57.9369 54.7408 56.9288 58.3791H45.3691V46.3691H58.6682ZM59.894 58.3791C60.822 54.7219 61.3784 50.6706 61.4782 46.3691H72.7308C72.5222 50.6888 71.3539 54.7598 69.4403 58.3791H59.894ZM61.4782 43.5591C61.3784 39.2577 60.822 35.2064 59.894 31.5499H69.4403C71.3539 35.1692 72.5222 39.2395 72.7308 43.5591H61.4782ZM52.8255 17.5624C58.9492 19.5477 64.1814 23.5288 67.7473 28.7399H59.0841C57.5716 24.0943 55.4177 20.2488 52.8255 17.5624ZM35.1028 17.5624C32.5113 20.2488 30.3574 24.0943 28.8442 28.7399H20.181C23.7469 23.5288 28.9791 19.5477 35.1028 17.5624ZM35.1035 72.3666C28.9791 70.3806 23.7476 66.3995 20.1817 61.1891H28.8449C30.3574 65.834 32.5113 69.6795 35.1035 72.3666ZM52.8255 72.3659C55.417 69.6795 57.5716 65.834 59.0841 61.1891H67.7473C64.1807 66.3995 58.9492 70.3806 52.8255 72.3659Z" fill="#4985FF"/>
</svg>
