<svg width="90" height="90" viewBox="0 0 90 90" fill="none" xmlns="http://www.w3.org/2000/svg">
<path fill-rule="evenodd" clip-rule="evenodd" d="M45 89C69.3005 89 89 69.3005 89 45C89 20.6995 69.3005 1 45 1C20.6995 1 1 20.6995 1 45C1 69.3005 20.6995 89 45 89ZM45 90C69.8528 90 90 69.8528 90 45C90 20.1472 69.8528 0 45 0C20.1472 0 0 20.1472 0 45C0 69.8528 20.1472 90 45 90ZM41.7246 68.6921H51.4149V59.0019H41.7246V68.6921ZM49.3305 66.6078H43.8089V61.0862H49.3305V66.6078ZM33.5074 26.677H23.8172V16.986H33.5074V26.677ZM25.9015 24.592H31.4231V19.0704H25.9015V24.592ZM36.3231 26.677H46.0133V16.986H36.3231V26.677ZM43.929 24.592H38.4074V19.0704H43.929V24.592ZM33.5074 39.1829H23.8172V29.4919H33.5074V39.1829ZM25.9015 37.0986H31.4231V31.577H25.9015V37.0986ZM23.8172 51.6888H33.5074V41.9978H23.8172V51.6888ZM31.4231 49.6045H25.9015V44.0829H31.4231V49.6045ZM51.2006 43.6803H41.5103V33.9901H51.2006V43.6803ZM43.5946 41.596H49.1163V36.0744H43.5946V41.596ZM41.5103 56.1862H51.2006V46.496H41.5103V56.1862ZM49.1163 54.1019H43.5946V48.5803H49.1163V54.1019ZM69.6721 73.5408V29.4919H51.6052V12.4001H18.2555V73.5408H14.0889V75.6251H23.8172H33.5074H36.3231H69.6721H73.8394V73.5408H69.6721ZM25.9015 73.5408V56.5888H31.4231V73.5408H25.9015ZM33.5081 73.5408V54.5045H23.8172V73.5408H20.3398V14.4844H49.5209V29.4919H36.3231V73.5408H33.5081ZM38.4074 73.5408V31.5763H67.5878V73.5408H38.4074ZM54.9253 68.6921H64.6162V59.0019H54.9253V68.6921ZM62.5319 66.6078H57.0096V61.0862H62.5319V66.6078ZM64.402 43.6803H54.711V33.9901H64.402V43.6803ZM56.7953 41.596H62.3177V36.0744H56.7953V41.596ZM54.711 56.1862H64.402V46.496H54.711V56.1862ZM62.3177 54.1019H56.7953V48.5803H62.3177V54.1019Z" fill="#4985FF"/>
</svg>
