<svg width="90" height="90" viewBox="0 0 90 90" fill="none" xmlns="http://www.w3.org/2000/svg">
<path fill-rule="evenodd" clip-rule="evenodd" d="M89 45C89 69.3005 69.3005 89 45 89C20.6995 89 1 69.3005 1 45C1 20.6995 20.6995 1 45 1C69.3005 1 89 20.6995 89 45ZM90 45C90 69.8528 69.8528 90 45 90C20.1472 90 0 69.8528 0 45C0 20.1472 20.1472 0 45 0C69.8528 0 90 20.1472 90 45ZM45.5283 50.8385C46.2596 51.5698 47.2199 51.9358 48.1802 51.9358C48.679 51.9358 49.1783 51.8368 49.6454 51.6391L58.4908 60.4845C58.7655 60.7592 59.1244 60.8961 59.4841 60.8961C59.8438 60.8961 60.2028 60.7585 60.4775 60.4845C61.0261 59.9358 61.0261 59.0465 60.4775 58.4978L51.6324 49.6528C52.2105 48.2871 51.9438 46.6455 50.8321 45.5339L50.6711 45.373C51.2717 43.6513 50.8854 41.6587 49.5121 40.2855L32.1393 22.9134L30.0796 20.8536C29.7508 20.5249 29.7508 19.9896 30.0796 19.6608C30.6282 19.1121 30.6282 18.2228 30.0796 17.6741C29.8056 17.3998 29.4458 17.2626 29.0861 17.2626C28.7265 17.2626 28.3669 17.3998 28.0929 17.6741L25.4771 20.2899L22.0149 16.8277L23.0855 15.757C23.6341 15.2084 23.6341 14.319 23.0855 13.7703C22.5368 13.2217 21.6468 13.2217 21.0988 13.7703L19.0491 15.8202L19.0349 15.8343L15.9193 18.9499C15.9118 18.9573 15.9045 18.9648 15.8972 18.9724L13.7633 21.1065C13.2147 21.6552 13.2147 22.5446 13.7633 23.0932C14.038 23.3679 14.397 23.5049 14.7566 23.5049C15.1163 23.5049 15.476 23.3672 15.75 23.0932L16.9126 21.9305L20.3745 25.3925L17.7103 28.0567C17.6956 28.071 17.6809 28.0854 17.6664 28.0999C17.1178 28.6486 17.1178 29.538 17.6664 30.0866C17.8559 30.2764 18.0865 30.4005 18.3297 30.459C18.4382 30.4852 18.5493 30.4983 18.6604 30.4983C19.0194 30.4983 19.3798 30.3613 19.6538 30.0866L19.6728 30.0676C20.0035 29.7586 20.5236 29.7643 20.8466 30.0866L22.9064 32.1463L29.5864 38.8264L33.3111 42.5511L37.0094 46.2494C37.0181 46.2585 37.0268 46.2675 37.0357 46.2764C37.0451 46.2858 37.0545 46.295 37.064 46.304L40.2785 49.5185C41.2346 50.4739 42.4892 50.9516 43.7446 50.9516C44.2938 50.9516 44.8429 50.8602 45.367 50.6772L45.5283 50.8385ZM47.5248 42.2722L31.146 25.8934L25.8864 31.153L26.8548 32.1215L30.0845 28.8924C30.6331 28.3437 31.5232 28.3437 32.0712 28.8924C32.6198 29.441 32.6198 30.3304 32.0712 30.879L28.8415 34.1081L30.5798 35.8464L32.3107 34.1154C32.8587 33.5668 33.7494 33.5668 34.2974 34.1154C34.846 34.6641 34.846 35.5535 34.2974 36.1021L32.5664 37.8331L34.3045 39.5711L37.5338 36.3424C38.0825 35.7937 38.9725 35.7937 39.5205 36.3424C40.0691 36.891 40.0691 37.7804 39.5205 38.329L36.2912 41.5578L38.0291 43.2957L39.76 41.5648C40.308 41.0161 41.1987 41.0161 41.7467 41.5648C42.2953 42.1134 42.2953 43.0028 41.7467 43.5514L40.0157 45.2824L42.2651 47.5318C43.0807 48.3467 44.4071 48.3467 45.2227 47.5318L47.5248 45.2297C48.3397 44.4141 48.3397 43.0878 47.5248 42.2722ZM28.0929 22.8403L29.1593 23.9067L23.8997 29.1663L22.8333 28.0999C22.6281 27.8947 22.4044 27.719 22.1675 27.5728L27.5659 22.1745C27.712 22.4114 27.8877 22.6352 28.0929 22.8403ZM18.8995 19.9434L22.3612 23.4051L23.4901 22.2762L20.0284 18.8144L18.8995 19.9434ZM49.0013 47.7278L47.7212 49.0074C48.0787 49.2071 48.5403 49.1552 48.8455 48.8518C49.1488 48.5479 49.2007 48.0861 49.0013 47.7278ZM49.021 60.8961C49.2698 62.7554 50.0052 64.463 51.0945 65.8864L47.3983 69.5797C46.8497 70.1284 46.8497 71.0185 47.3976 71.5671C47.6723 71.8418 48.032 71.9788 48.3916 71.9788C48.7513 71.9788 49.1103 71.8418 49.385 71.5678L53.0825 67.8731C54.5076 68.9624 56.2174 69.6977 58.0791 69.9461V75.1646C58.0791 75.9402 58.7086 76.5696 59.4841 76.5696C60.2597 76.5696 60.8891 75.9409 60.8891 75.1646V69.9461C62.7509 69.6977 64.4607 68.9624 65.8857 67.873L69.5833 71.5678C69.8579 71.8418 70.2169 71.9788 70.5766 71.9788C70.9363 71.9788 71.296 71.8418 71.5706 71.5671C72.1186 71.0185 72.1186 70.1284 71.5699 69.5797L67.8735 65.8861C68.9626 64.4628 69.6978 62.7553 69.9466 60.8961H75.1716C75.9472 60.8961 76.5767 60.2667 76.5767 59.4911C76.5767 58.7156 75.9472 58.0861 75.1716 58.0861H69.9467C69.6982 56.2268 68.9631 54.5192 67.874 53.0957L71.5699 49.4025C72.1186 48.8539 72.1186 47.9638 71.5706 47.4152C71.022 46.8665 70.1319 46.8672 69.5833 47.4145L65.8863 51.1087C64.4611 50.019 62.7511 49.2835 60.8891 49.0348V43.8177C60.8891 43.0421 60.2597 42.4127 59.4841 42.4127C58.7086 42.4127 58.0791 43.0421 58.0791 43.8177V49.0347C57.5506 49.1052 57.0284 49.2154 56.5168 49.3646C55.7721 49.5817 55.3436 50.3608 55.5614 51.1061C55.7784 51.8515 56.5603 52.2793 57.3029 52.0615C57.996 51.8594 58.7155 51.7555 59.4428 51.7518L59.4683 51.7523L59.4841 51.7524L59.5021 51.7523L59.5253 51.7518C63.7773 51.7744 67.2299 55.2367 67.2299 59.4904C67.2299 63.7581 63.7546 67.2292 59.4834 67.2292C55.2262 67.2292 51.7597 63.7801 51.7371 59.5322L51.7375 59.5086L51.7377 59.4911C51.7377 59.4773 51.7374 59.4635 51.7371 59.4498C51.7412 58.644 51.8689 57.8514 52.1156 57.0935C52.3566 56.3566 51.9533 55.5635 51.2157 55.3225C50.4774 55.0808 49.6856 55.4855 49.4447 56.2224C49.2468 56.8299 49.1051 57.4531 49.0206 58.0861H43.7966C43.021 58.0861 42.3916 58.7156 42.3916 59.4911C42.3916 60.2667 43.021 60.8961 43.7966 60.8961H49.021Z" fill="#4985FF"/>
</svg>
